<svg width="1140" height="236" viewBox="0 0 1140 236" fill="none" xmlns="http://www.w3.org/2000/svg">
  <path opacity="0.2" fill-rule="evenodd" clip-rule="evenodd" d="M484 533C484 860.505 749.495 1126 1077 1126C1404.5 1126 1670 860.505 1670 533C1670 205.495 1404.5 -60 1077 -60C749.495 -60 484 205.495 484 533ZM684 533C684 315.952 859.952 140 1077 140C1294.05 140 1470 315.952 1470 533C1470 750.048 1294.05 926 1077 926C859.952 926 684 750.048 684 533Z" fill="url(#paint0_linear_6301_2)"/>
  <path opacity="0.2" fill-rule="evenodd" clip-rule="evenodd" d="M37 206C364.505 206 630 -59.4951 630 -387C630 -714.505 364.505 -980 37 -980C-290.505 -980 -556 -714.505 -556 -387C-556 -59.4951 -290.505 206 37 206ZM37 6C-180.048 6 -356 -169.952 -356 -387C-356 -604.048 -180.048 -780 37 -780C254.048 -780 430 -604.048 430 -387C430 -169.952 254.048 6 37 6Z" fill="url(#paint1_linear_6301_2)"/>
  <defs>
    <linearGradient id="paint0_linear_6301_2" x1="1501.15" y1="791.459" x2="1501.15" y2="-56.8384" gradientUnits="userSpaceOnUse">
      <stop stop-color="white"/>
      <stop offset="1" stop-color="white" stop-opacity="0.01"/>
    </linearGradient>
    <linearGradient id="paint1_linear_6301_2" x1="630" y1="-978.419" x2="-552.838" y2="-978.419" gradientUnits="userSpaceOnUse">
      <stop stop-color="white" stop-opacity="0.01"/>
      <stop offset="1" stop-color="white"/>
    </linearGradient>
  </defs>
</svg>
