<svg width="18" height="17" viewBox="0 0 18 17" fill="none" xmlns="http://www.w3.org/2000/svg">
<path fill-rule="evenodd" clip-rule="evenodd" d="M9.39205 10.0735L2.86224 16.5622C2.41564 17.0059 1.68827 17.0027 1.23762 16.5549C0.786962 16.107 0.783671 15.3843 1.23027 14.9405L7.76009 8.45181L1.30452 2.03692C0.857924 1.59314 0.828004 0.903363 1.23769 0.496257C1.64738 0.0891521 2.34153 0.118884 2.78813 0.562666L9.24369 6.97755L15.9327 0.330708C16.3793 -0.113073 17.1066 -0.109803 17.5573 0.338013C18.008 0.785829 18.0113 1.50861 17.5647 1.95239L10.8757 8.59924L17.4905 15.1724C17.9371 15.6162 17.9671 16.306 17.5574 16.7131C17.1477 17.1202 16.4535 17.0905 16.0069 16.6467L9.39205 10.0735Z" fill="#3A4C66"/>
</svg>
