<svg width="0" height="0" class="hidden">
  <symbol xmlns="http://www.w3.org/2000/svg" viewBox="0 0 31 37" id="play">
    <path d="M28.2812 15.5273L4.90625 1.71484C2.98047 0.585938 0.125 1.71484 0.125 4.4375V32.0625C0.125 34.5859 2.78125 36.1133 4.90625 34.8516L28.2812 21.0391C30.3398 19.7773 30.3398 16.7891 28.2812 15.5273Z"></path>
  </symbol>
  <symbol xmlns="http://www.w3.org/2000/svg" viewBox="0 0 15 14" id="arrow">
    <path d="M9.0625 12.9062C9.375 12.5938 9.34375 12.125 9.0625 11.8125L5.28125 8.25H14.25C14.6875 8.25 15 7.90625 15 7.5V6.5C15 6.0625 14.6875 5.75 14.25 5.75L5.28125 5.75L9.0625 2.15625C9.34375 1.84375 9.34375 1.375 9.0625 1.0625L8.375 0.375C8.0625 0.09375 7.59375 0.09375 7.3125 0.375L1.21875 6.46875C0.9375 6.75 0.9375 7.21875 1.21875 7.53125L7.3125 13.5938C7.59375 13.875 8.0625 13.875 8.375 13.5938L9.0625 12.9062Z"></path>
  </symbol>
  <symbol xmlns="http://www.w3.org/2000/svg" viewBox="0 0 14 19" id="flag">
    <path d="M12.0625 0.25H1.9375C0.988281 0.25 0.25 1.02344 0.25 1.9375V18.25L7 14.3125L13.75 18.25V1.9375C13.75 1.02344 12.9766 0.25 12.0625 0.25ZM12.0625 15.332L7 12.3789L1.9375 15.332V2.14844C1.9375 2.04297 2.00781 1.9375 2.14844 1.9375H11.8516C11.957 1.9375 12.0625 2.04297 12.0625 2.14844V15.332Z"></path>
  </symbol>
</svg>