<svg width="0" height="0" class="hidden">
  <symbol xmlns="http://www.w3.org/2000/svg" viewBox="0 0 16 17" id="google">
    <path d="M15.9583 8.52075C15.9583 8.02075 15.8958 7.64575 15.8333 7.2395H8.45831V9.89575H12.8333C12.6771 11.052 11.5208 13.2395 8.45831 13.2395C5.80206 13.2395 3.64581 11.052 3.64581 8.33325C3.64581 3.9895 8.77081 1.9895 11.5208 4.64575L13.6458 2.6145C12.3021 1.3645 10.5208 0.583252 8.45831 0.583252C4.14581 0.583252 0.708313 4.052 0.708313 8.33325C0.708313 12.6458 4.14581 16.0833 8.45831 16.0833C12.9271 16.0833 15.9583 12.9583 15.9583 8.52075Z"></path>
  </symbol>
  <symbol xmlns="http://www.w3.org/2000/svg" viewBox="0 0 15 15" id="instagram">
    <path d="M7.33334 3.7395C5.33334 3.7395 3.73959 5.3645 3.73959 7.33325C3.73959 9.33325 5.33334 10.927 7.33334 10.927C9.30209 10.927 10.9271 9.33325 10.9271 7.33325C10.9271 5.3645 9.30209 3.7395 7.33334 3.7395ZM7.33334 9.677C6.05209 9.677 4.98959 8.64575 4.98959 7.33325C4.98959 6.052 6.02084 5.02075 7.33334 5.02075C8.61459 5.02075 9.64584 6.052 9.64584 7.33325C9.64584 8.64575 8.61459 9.677 7.33334 9.677ZM11.8958 3.6145C11.8958 3.14575 11.5208 2.77075 11.0521 2.77075C10.5833 2.77075 10.2083 3.14575 10.2083 3.6145C10.2083 4.08325 10.5833 4.45825 11.0521 4.45825C11.5208 4.45825 11.8958 4.08325 11.8958 3.6145ZM14.2708 4.45825C14.2083 3.33325 13.9583 2.33325 13.1458 1.52075C12.3333 0.708252 11.3333 0.458252 10.2083 0.395752C9.05209 0.333252 5.58334 0.333252 4.42709 0.395752C3.30209 0.458252 2.33334 0.708252 1.48959 1.52075C0.677094 2.33325 0.427094 3.33325 0.364594 4.45825C0.302094 5.6145 0.302094 9.08325 0.364594 10.2395C0.427094 11.3645 0.677094 12.3333 1.48959 13.177C2.33334 13.9895 3.30209 14.2395 4.42709 14.302C5.58334 14.3645 9.05209 14.3645 10.2083 14.302C11.3333 14.2395 12.3333 13.9895 13.1458 13.177C13.9583 12.3333 14.2083 11.3645 14.2708 10.2395C14.3333 9.08325 14.3333 5.6145 14.2708 4.45825ZM12.7708 11.4583C12.5521 12.0833 12.0521 12.552 11.4583 12.802C10.5208 13.177 8.33334 13.0833 7.33334 13.0833C6.30209 13.0833 4.11459 13.177 3.20834 12.802C2.58334 12.552 2.11459 12.0833 1.86459 11.4583C1.48959 10.552 1.58334 8.3645 1.58334 7.33325C1.58334 6.33325 1.48959 4.14575 1.86459 3.20825C2.11459 2.6145 2.58334 2.14575 3.20834 1.89575C4.11459 1.52075 6.30209 1.6145 7.33334 1.6145C8.33334 1.6145 10.5208 1.52075 11.4583 1.89575C12.0521 2.1145 12.5208 2.6145 12.7708 3.20825C13.1458 4.14575 13.0521 6.33325 13.0521 7.33325C13.0521 8.3645 13.1458 10.552 12.7708 11.4583Z"></path>
  </symbol>
  <symbol xmlns="http://www.w3.org/2000/svg" viewBox="0 0 15 15" id="likedin">
    <path d="M13.3333 0.333252H1.30209C0.770844 0.333252 0.333344 0.802002 0.333344 1.3645V13.3333C0.333344 13.8958 0.770844 14.3333 1.30209 14.3333H13.3333C13.8646 14.3333 14.3333 13.8958 14.3333 13.3333V1.3645C14.3333 0.802002 13.8646 0.333252 13.3333 0.333252ZM4.55209 12.3333H2.48959V5.677H4.55209V12.3333ZM3.52084 4.7395C2.83334 4.7395 2.30209 4.20825 2.30209 3.552C2.30209 2.89575 2.83334 2.33325 3.52084 2.33325C4.17709 2.33325 4.70834 2.89575 4.70834 3.552C4.70834 4.20825 4.17709 4.7395 3.52084 4.7395ZM12.3333 12.3333H10.2396V9.08325C10.2396 8.33325 10.2396 7.33325 9.17709 7.33325C8.08334 7.33325 7.92709 8.177 7.92709 9.052V12.3333H5.86459V5.677H7.83334V6.58325H7.86459C8.14584 6.052 8.83334 5.4895 9.83334 5.4895C11.9271 5.4895 12.3333 6.89575 12.3333 8.677V12.3333Z"></path>
  </symbol>
  <symbol xmlns="http://www.w3.org/2000/svg" viewBox="0 0 17 14" id="twitter">
    <path d="M14.6771 4.08325C15.3021 3.6145 15.8646 3.052 16.3021 2.39575C15.7396 2.64575 15.0833 2.83325 14.4271 2.89575C15.1146 2.4895 15.6146 1.8645 15.8646 1.08325C15.2396 1.45825 14.5208 1.7395 13.8021 1.89575C13.1771 1.2395 12.3333 0.864502 11.3958 0.864502C9.58334 0.864502 8.11459 2.33325 8.11459 4.14575C8.11459 4.39575 8.14584 4.64575 8.20834 4.89575C5.48959 4.7395 3.05209 3.427 1.42709 1.45825C1.14584 1.927 0.989594 2.4895 0.989594 3.1145C0.989594 4.2395 1.55209 5.2395 2.45834 5.83325C1.92709 5.802 1.39584 5.677 0.958344 5.427V5.45825C0.958344 7.052 2.08334 8.3645 3.58334 8.677C3.33334 8.7395 3.02084 8.802 2.73959 8.802C2.52084 8.802 2.33334 8.77075 2.11459 8.7395C2.52084 10.052 3.73959 10.9895 5.17709 11.0208C4.05209 11.8958 2.64584 12.427 1.11459 12.427C0.833344 12.427 0.583344 12.3958 0.333344 12.3645C1.77084 13.302 3.48959 13.8333 5.36459 13.8333C11.3958 13.8333 14.6771 8.8645 14.6771 4.52075C14.6771 4.3645 14.6771 4.2395 14.6771 4.08325Z"></path>
  </symbol>
</svg>